<?xml version="1.0" encoding="utf-8"?>
<svg viewBox="0 0 18 18" fill="white" xmlns="http://www.w3.org/2000/svg">
  <defs>
    <linearGradient gradientUnits="userSpaceOnUse" x1="9" y1="0" x2="9" y2="18" id="gradient-0" gradientTransform="matrix(0.707098, 0.707098, -0.707098, 0.707098, 8.999861, -3.727616)">
      <stop offset="0" style="stop-color: rgb(160, 0, 160);"/>
      <stop offset="1" style="stop-color: rgb(0, 0, 120);"/>
    </linearGradient>
  </defs>
  <title>beeg.</title>
  <rect width="18" height="18" style="fill: url('#gradient-0');"/>
  <g transform="matrix(1, 0, 0, 1, 3, 4)">
    <path d="M1.33346 8.50746C1.14794 8.50746 0.974009 8.47302 0.811674 8.40413C0.649339 8.33525 0.50633 8.23957 0.382646 8.11711C0.266693 7.99464 0.17393 7.85687 0.104358 7.70379C0.034786 7.54305 0 7.37084 0 7.18714V0H0.881246V7.18714C0.881246 7.31726 0.923762 7.42442 1.00879 7.50861C1.09383 7.5928 1.20205 7.6349 1.33346 7.6349H1.43782C1.56924 7.6349 1.67746 7.5928 1.76249 7.50861C1.84752 7.42442 1.89004 7.31726 1.89004 7.18714V2.81286C1.89004 2.69039 1.84752 2.58706 1.76249 2.50287C1.67746 2.41102 1.56924 2.3651 1.43782 2.3651H1.11315V1.49254H1.43782C1.62335 1.49254 1.79341 1.52698 1.94802 1.59587C2.11035 1.66475 2.25336 1.76043 2.37704 1.88289C2.50073 2.00536 2.59736 2.14696 2.66693 2.30769C2.7365 2.46077 2.77129 2.62916 2.77129 2.81286V7.18714C2.77129 7.37084 2.7365 7.54305 2.66693 7.70379C2.59736 7.85687 2.50073 7.99464 2.37704 8.11711C2.25336 8.23957 2.11035 8.33525 1.94802 8.40413C1.79341 8.47302 1.62335 8.50746 1.43782 8.50746H1.33346Z">
      <title>B</title>
    </path>
    <path d="M 3.938 4.949 L 4.947 4.479 L 4.947 2.813 C 4.947 2.69 4.905 2.587 4.82 2.503 C 4.735 2.411 4.626 2.365 4.495 2.365 L 4.391 2.365 C 4.259 2.365 4.151 2.411 4.066 2.503 C 3.981 2.587 3.938 2.69 3.938 2.813 L 3.938 4.949 Z M 4.391 8.507 C 4.205 8.507 4.031 8.473 3.869 8.404 C 3.706 8.335 3.563 8.24 3.44 8.117 C 3.324 7.995 3.231 7.857 3.161 7.704 C 3.092 7.543 3.057 7.371 3.057 7.187 L 3.057 2.813 C 3.057 2.629 3.092 2.461 3.161 2.308 C 3.231 2.147 3.324 2.005 3.44 1.883 C 3.563 1.76 3.706 1.665 3.869 1.596 C 4.031 1.527 4.205 1.493 4.391 1.493 L 4.495 1.493 C 4.68 1.493 4.854 1.527 5.017 1.596 C 5.179 1.665 5.318 1.76 5.434 1.883 C 5.558 2.005 5.654 2.147 5.724 2.308 C 5.801 2.461 5.84 2.629 5.84 2.813 L 5.84 5.035 L 3.938 5.922 L 3.938 7.187 C 3.938 7.317 3.981 7.424 4.066 7.509 C 4.151 7.593 4.259 7.635 4.391 7.635 L 4.495 7.635 C 4.626 7.635 4.735 7.593 4.82 7.509 C 4.905 7.424 4.947 7.317 4.947 7.187 L 4.947 6.424 L 5.84 6.008 L 5.84 7.187 C 5.84 7.371 5.801 7.543 5.724 7.704 C 5.654 7.857 5.558 7.995 5.434 8.117 C 5.318 8.24 5.179 8.335 5.017 8.404 C 4.854 8.473 4.68 8.507 4.495 8.507 L 4.391 8.507 Z">
      <title>E</title>
    </path>
    <path d="M 7.018 4.949 L 8.027 4.479 L 8.027 2.813 C 8.027 2.69 7.985 2.587 7.9 2.503 C 7.815 2.411 7.706 2.365 7.575 2.365 L 7.471 2.365 C 7.339 2.365 7.231 2.411 7.146 2.503 C 7.061 2.587 7.018 2.69 7.018 2.813 L 7.018 4.949 Z M 7.471 8.507 C 7.285 8.507 7.111 8.473 6.949 8.404 C 6.786 8.335 6.643 8.24 6.52 8.117 C 6.404 7.995 6.311 7.857 6.241 7.704 C 6.172 7.543 6.137 7.371 6.137 7.187 L 6.137 2.813 C 6.137 2.629 6.172 2.461 6.241 2.308 C 6.311 2.147 6.404 2.005 6.52 1.883 C 6.643 1.76 6.786 1.665 6.949 1.596 C 7.111 1.527 7.285 1.493 7.471 1.493 L 7.575 1.493 C 7.76 1.493 7.934 1.527 8.097 1.596 C 8.259 1.665 8.398 1.76 8.514 1.883 C 8.638 2.005 8.734 2.147 8.804 2.308 C 8.881 2.461 8.92 2.629 8.92 2.813 L 8.92 5.035 L 7.018 5.922 L 7.018 7.187 C 7.018 7.317 7.061 7.424 7.146 7.509 C 7.231 7.593 7.339 7.635 7.471 7.635 L 7.575 7.635 C 7.706 7.635 7.815 7.593 7.9 7.509 C 7.985 7.424 8.027 7.317 8.027 7.187 L 8.027 6.424 L 8.92 6.008 L 8.92 7.187 C 8.92 7.371 8.881 7.543 8.804 7.704 C 8.734 7.857 8.638 7.995 8.514 8.117 C 8.398 8.24 8.259 8.335 8.097 8.404 C 7.934 8.473 7.76 8.507 7.575 8.507 L 7.471 8.507 Z">
      <title>E</title>
    </path>
    <path d="M10.11 10V9.12744H10.6549C10.7864 9.12744 10.8946 9.08534 10.9796 9.00115C11.0724 8.92461 11.1188 8.82128 11.1188 8.69116V2.81286C11.1188 2.69039 11.0724 2.58706 10.9796 2.50287C10.8946 2.41102 10.7864 2.3651 10.6549 2.3651H10.5506C10.4192 2.3651 10.3109 2.41102 10.2259 2.50287C10.1409 2.58706 10.0984 2.69039 10.0984 2.81286V7.18714C10.0984 7.31726 10.1409 7.42442 10.2259 7.50861C10.3109 7.5928 10.4192 7.6349 10.5506 7.6349H10.8753V8.50746H10.5506C10.3651 8.50746 10.1911 8.47302 10.0288 8.40413C9.86646 8.33525 9.72345 8.23957 9.59976 8.11711C9.48381 7.99464 9.39105 7.85687 9.32148 7.70379C9.2519 7.54305 9.21712 7.37084 9.21712 7.18714V2.81286C9.21712 2.62916 9.2519 2.46077 9.32148 2.30769C9.39105 2.14696 9.48381 2.00536 9.59976 1.88289C9.72345 1.76043 9.86646 1.66475 10.0288 1.59587C10.1911 1.52698 10.3651 1.49254 10.5506 1.49254H10.6549C10.8405 1.49254 11.0144 1.52698 11.1767 1.59587C11.3391 1.66475 11.4821 1.76043 11.6058 1.88289C11.7294 2.00536 11.8261 2.14696 11.8956 2.30769C11.9652 2.46077 12 2.62916 12 2.81286V8.69116C12 8.87486 11.9652 9.04325 11.8956 9.19633C11.8261 9.35706 11.7294 9.49483 11.6058 9.60964C11.4821 9.73211 11.3391 9.82778 11.1767 9.89667C11.0144 9.96556 10.8405 10 10.6549 10H10.11Z">
      <title>G</title>
    </path>
  </g>
</svg>